<svg width="24" height="24" viewBox="0 0 24 24" fill="none" xmlns="http://www.w3.org/2000/svg">
<path d="M16.3032 4.3032C16.5246 4.07398 16.7894 3.89114 17.0822 3.76536C17.375 3.63958 17.69 3.57337 18.0086 3.5706C18.3273 3.56783 18.6433 3.62856 18.9383 3.74923C19.2332 3.8699 19.5012 4.04811 19.7266 4.27345C19.9519 4.4988 20.1301 4.76676 20.2508 5.06171C20.3715 5.35666 20.4322 5.6727 20.4294 5.99137C20.4266 6.31004 20.3604 6.62496 20.2347 6.91777C20.1089 7.21058 19.926 7.47541 19.6968 7.6968L18.7452 8.6484L15.3516 5.2548L16.3032 4.3032V4.3032ZM13.6548 6.9516L3.60001 17.0064V20.4H6.99361L17.0496 10.3452L13.6536 6.9516H13.6548Z" fill="white"/>
</svg>
