<svg width="167" height="116" viewBox="0 0 167 116" fill="none" xmlns="http://www.w3.org/2000/svg">
<path d="M92.7448 73.0504C88.7392 75.439 83.1636 74.0457 80.8765 73.0504C77.2098 68.3521 76.7631 61.9792 77.7339 55.8385C75.5993 51.0614 70.2441 50.1012 67.8334 50.2183C77.8879 46.7264 79.9853 47.1108 79.7807 47.7481C80.9269 44.3939 82.2917 41.4458 83.4727 39.3292C85.3258 36.1323 85.5255 31.6049 84.9477 27.0349C84.7689 25.6212 84.5158 24.2035 84.2142 22.8198C75.8568 19.0261 72.284 18.7803 71.5422 19.1315C78.1299 13.6518 81.5706 15.092 82.4675 16.497C82.2412 15.8183 82.0128 15.1719 81.7873 14.5651C81.4735 13.7205 81.1653 12.9528 80.8765 12.2819C81.4287 12.6436 82.9494 14.165 83.4638 14.5584C82.9801 14.1605 86.2302 11.4788 92.7448 9.29614C91.5507 9.76449 88.6625 12.0409 86.6622 17.3999C96.5793 29.4648 90.0582 46.8521 87.9233 55.8385C87.7636 56.5106 87.6792 57.2171 87.6583 57.9461C87.8631 56.7752 90.6753 53.5904 100.286 50.2183C97.7721 52.0917 92.0283 57.8056 89.1625 65.6739C90.2425 68.6478 91.6866 71.3522 92.7448 73.0504Z" fill="#03045E"/>
<path d="M66.596 48.9532C66.0043 47.7042 65.3213 45.9348 64.0134 48.9532C62.799 48.9532 61.5845 50.8267 64.0134 51.6594C64.7297 53.0125 65.2279 54.4696 66.596 51.6594C66.596 51.6594 69.245 50.3063 66.596 48.9532Z" fill="#03045E"/>
<path d="M70.1011 17.6772C69.266 15.9371 68.3019 13.472 66.4557 17.6772C64.7414 17.6772 63.0271 20.2873 66.4557 21.4474C67.4667 23.3325 68.17 25.3626 70.1011 21.4474C70.1011 21.4474 73.8404 19.5623 70.1011 17.6772Z" fill="#03045E"/>
<path d="M104.271 48.9532C103.679 47.7042 102.996 45.9348 101.688 48.9532C100.474 48.9532 99.2591 50.8267 101.688 51.6594C102.404 53.0125 102.902 54.4696 104.271 51.6594C104.271 51.6594 106.92 50.3063 104.271 48.9532Z" fill="#03045E"/>
<path d="M83.1915 6.12985C82.185 4.25926 81.0231 1.60926 78.7983 6.12985C76.7323 6.12985 74.6664 8.93573 78.7983 10.1828C80.0166 12.2093 80.8642 14.3916 83.1915 10.1828C83.1915 10.1828 87.6977 8.15632 83.1915 6.12985Z" fill="#03045E"/>
<path d="M94.9254 2.60813C93.9832 0.650542 92.8955 -2.12271 90.8126 2.60813C88.8785 2.60813 86.9445 5.54452 90.8126 6.84958C91.9532 8.9703 92.7467 11.2542 94.9254 6.84958C94.9254 6.84958 99.144 4.72886 94.9254 2.60813Z" fill="#03045E"/>
<path d="M8.90725 86.536C9.62192 86.536 10.4113 86.6747 11.2753 86.952C11.4673 87.1013 11.5633 87.2667 11.5633 87.448C11.5633 87.6187 11.4726 87.7733 11.2913 87.912C11.1206 88.04 10.9233 88.104 10.6993 88.104C10.1233 87.9547 9.58458 87.88 9.08325 87.88C7.93125 87.88 7.05658 88.2213 6.45925 88.904C5.86192 89.5867 5.56325 90.6 5.56325 91.944C5.56325 93.288 5.91525 94.3387 6.61925 95.096C6.98192 95.4907 7.41392 95.688 7.91525 95.688C8.41658 95.688 9.21658 95.4213 10.3153 94.888C10.6993 94.7067 10.9553 94.616 11.0833 94.616C11.3606 94.616 11.4993 94.76 11.4993 95.048C11.4993 95.336 11.3659 95.576 11.0993 95.768C10.1819 96.248 9.46725 96.5733 8.95525 96.744C8.44325 96.904 8.00058 96.984 7.62725 96.984C6.85925 96.984 6.20325 96.7013 5.65925 96.136C4.68858 95.0907 4.20325 93.6667 4.20325 91.864C4.20325 90.0507 4.66192 88.712 5.57925 87.848C6.50725 86.9733 7.61658 86.536 8.90725 86.536ZM17.3689 89.528C17.8382 89.528 18.0729 89.928 18.0729 90.728C18.0729 90.8133 18.0729 90.904 18.0729 91L18.0409 92.12C18.0302 92.472 18.0249 92.8187 18.0249 93.16L18.2649 96.776C18.2649 97.0427 17.9929 97.176 17.4489 97.176C17.4169 97.176 17.3369 97.176 17.2089 97.176C17.0915 97.176 17.0062 97.128 16.9529 97.032C16.9102 96.936 16.9049 96.8187 16.9369 96.68C16.9795 96.5413 16.9689 96.3867 16.9049 96.216C16.4142 96.7387 15.7635 97 14.9529 97C13.4489 97 12.6969 95.8373 12.6969 93.512C12.6969 92.2213 12.9369 91.2453 13.4169 90.584C13.9075 89.9227 14.6062 89.592 15.5129 89.592C15.9395 89.592 16.3662 89.6667 16.7929 89.816C16.9315 89.624 17.1235 89.528 17.3689 89.528ZM15.7049 90.984C15.0969 90.984 14.6435 91.16 14.3449 91.512C14.0462 91.864 13.8969 92.5093 13.8969 93.448C13.8969 95.0267 14.3235 95.816 15.1769 95.816C15.4009 95.816 15.6462 95.7147 15.9129 95.512C16.1902 95.3093 16.3822 95.08 16.4889 94.824C16.6915 94.248 16.7929 93.6187 16.7929 92.936C16.7929 92.2533 16.7075 91.7573 16.5369 91.448C16.3769 91.1387 16.0995 90.984 15.7049 90.984ZM22.9945 89.512L22.9785 86.424C22.9785 85.848 23.1598 85.56 23.5225 85.56C23.8958 85.56 24.1038 85.72 24.1465 86.04C24.1678 86.1787 24.1945 87.016 24.2265 88.552C24.2585 90.088 24.3065 91.528 24.3705 92.872C24.4452 94.216 24.4825 95.4693 24.4825 96.632C24.4825 96.952 24.2425 97.112 23.7625 97.112C23.4425 97.112 23.2825 96.888 23.2825 96.44C22.8238 96.8027 22.2798 96.984 21.6505 96.984C20.8505 96.984 20.1998 96.6853 19.6985 96.088C19.2078 95.4907 18.9625 94.7547 18.9625 93.88C18.9625 93.0053 19.1385 92.1893 19.4905 91.432C19.8532 90.664 20.4132 90.1147 21.1705 89.784C21.6398 89.5813 22.0932 89.48 22.5305 89.48C22.6905 89.48 22.8452 89.4907 22.9945 89.512ZM23.0745 91.704C22.9998 91.4693 22.9092 91.2933 22.8025 91.176C22.6958 91.048 22.5785 90.9733 22.4505 90.952C22.3332 90.92 22.1892 90.904 22.0185 90.904C21.8478 90.904 21.6398 90.968 21.3945 91.096C21.1492 91.224 20.9412 91.432 20.7705 91.72C20.4292 92.296 20.2585 92.904 20.2585 93.544C20.2585 94.1733 20.3812 94.6907 20.6265 95.096C20.8825 95.4907 21.2398 95.688 21.6985 95.688C22.1678 95.688 22.5358 95.4587 22.8025 95C23.0692 94.5413 23.2025 93.9547 23.2025 93.24C23.2025 92.44 23.1598 91.928 23.0745 91.704ZM27.7089 89.592C28.2742 89.592 28.8129 89.7573 29.3249 90.088C29.8369 90.4187 30.0929 90.8293 30.0929 91.32C30.0929 91.8 29.8849 92.2693 29.4689 92.728C29.0529 93.176 28.4982 93.448 27.8049 93.544C27.5062 93.5867 27.0582 93.608 26.4609 93.608C26.5782 94.5147 26.8075 95.112 27.1489 95.4C27.2555 95.5173 27.3995 95.576 27.5809 95.576C28.2422 95.576 28.7969 95.368 29.2449 94.952C29.6929 94.5253 30.0129 94.312 30.2049 94.312C30.2902 94.312 30.4182 94.392 30.5889 94.552C30.7595 94.712 30.8449 94.8613 30.8449 95C30.8449 95.2773 30.5089 95.6773 29.8369 96.2C29.5382 96.4453 29.1755 96.6533 28.7489 96.824C28.3329 96.984 27.9435 97.064 27.5809 97.064C26.6529 97.064 25.9702 96.4667 25.5329 95.272C25.2555 94.536 25.1169 93.7253 25.1169 92.84C25.1169 91.9547 25.3249 91.192 25.7409 90.552C26.1569 89.912 26.8129 89.592 27.7089 89.592ZM27.7889 90.696C27.3835 90.696 27.0369 90.9253 26.7489 91.384C26.6422 91.544 26.5409 91.9067 26.4449 92.472C27.9382 92.472 28.6849 92.104 28.6849 91.368C28.6849 90.92 28.3862 90.696 27.7889 90.696ZM33.8439 94.664L33.8599 96.312C33.8599 96.504 33.7692 96.68 33.5879 96.84C33.4172 97 33.2465 97.08 33.0759 97.08C32.8305 97.08 32.6759 96.888 32.6119 96.504C32.6012 96.4187 32.5585 95.64 32.4839 94.168C32.4092 92.6853 32.2652 91.5227 32.0519 90.68C31.9559 90.2747 31.9079 90.0347 31.9079 89.96C31.9079 89.608 32.1212 89.432 32.5479 89.432C32.7292 89.432 32.8732 89.5013 32.9799 89.64C33.0865 89.7787 33.1505 89.9227 33.1719 90.072C33.2039 90.2107 33.2305 90.4027 33.2519 90.648C33.2732 90.8933 33.2892 91.048 33.2999 91.112C33.5239 90.5787 33.8599 90.1787 34.3079 89.912C34.7559 89.6453 35.2465 89.512 35.7799 89.512C36.6545 89.512 37.0919 89.736 37.0919 90.184C37.0919 90.408 37.0119 90.5893 36.8519 90.728C36.7025 90.856 36.5265 90.92 36.3239 90.92C35.4172 90.92 34.7772 91.208 34.4039 91.784C34.0305 92.36 33.8439 93.32 33.8439 94.664ZM38.5441 96.504L38.3681 90.008C38.3681 89.8053 38.4375 89.64 38.5761 89.512C38.7148 89.384 38.8535 89.32 38.9921 89.32C39.3335 89.32 39.5308 89.464 39.5841 89.752C39.6268 90.04 39.6481 90.3387 39.6481 90.648C40.2241 89.8907 40.9441 89.512 41.8081 89.512C43.1308 89.512 43.7921 91.0213 43.7921 94.04C43.7921 94.3173 43.7921 94.7387 43.7921 95.304C43.7921 95.8587 43.7601 96.264 43.6961 96.52C43.6215 96.84 43.3921 97 43.0081 97C42.7521 97 42.6241 96.8293 42.6241 96.488L42.6401 95.592C42.6401 94.3547 42.5975 93.512 42.5121 93.064C42.4375 92.6053 42.3628 92.2427 42.2881 91.976C42.1068 91.4 41.8135 91.112 41.4081 91.112C40.8748 91.112 40.5015 91.304 40.2881 91.688C40.0535 92.104 39.9148 92.5947 39.8721 93.16C39.7975 94.152 39.7601 95.2027 39.7601 96.312C39.7601 96.5253 39.6801 96.696 39.5201 96.824C39.3601 96.952 39.1681 97.016 38.9441 97.016C38.6775 97.016 38.5441 96.8453 38.5441 96.504ZM47.4745 89.592C48.0398 89.592 48.5785 89.7573 49.0905 90.088C49.6025 90.4187 49.8585 90.8293 49.8585 91.32C49.8585 91.8 49.6505 92.2693 49.2345 92.728C48.8185 93.176 48.2638 93.448 47.5705 93.544C47.2718 93.5867 46.8238 93.608 46.2265 93.608C46.3438 94.5147 46.5732 95.112 46.9145 95.4C47.0212 95.5173 47.1652 95.576 47.3465 95.576C48.0078 95.576 48.5625 95.368 49.0105 94.952C49.4585 94.5253 49.7785 94.312 49.9705 94.312C50.0558 94.312 50.1838 94.392 50.3545 94.552C50.5252 94.712 50.6105 94.8613 50.6105 95C50.6105 95.2773 50.2745 95.6773 49.6025 96.2C49.3038 96.4453 48.9412 96.6533 48.5145 96.824C48.0985 96.984 47.7092 97.064 47.3465 97.064C46.4185 97.064 45.7358 96.4667 45.2985 95.272C45.0212 94.536 44.8825 93.7253 44.8825 92.84C44.8825 91.9547 45.0905 91.192 45.5065 90.552C45.9225 89.912 46.5785 89.592 47.4745 89.592ZM47.5545 90.696C47.1492 90.696 46.8025 90.9253 46.5145 91.384C46.4078 91.544 46.3065 91.9067 46.2105 92.472C47.7038 92.472 48.4505 92.104 48.4505 91.368C48.4505 90.92 48.1518 90.696 47.5545 90.696ZM51.9455 89.528L52.7455 89.544C52.9268 89.544 53.0282 89.5387 53.0495 89.528V86.248C53.0602 86.0667 53.1508 85.912 53.3215 85.784C53.4922 85.656 53.6522 85.592 53.8015 85.592C53.9508 85.592 54.0682 85.64 54.1535 85.736C54.2495 85.832 54.2922 85.9813 54.2815 86.184C54.2708 86.3867 54.2655 87.496 54.2655 89.512L56.1375 89.448C56.4575 89.448 56.6175 89.6347 56.6175 90.008C56.6175 90.2853 56.5322 90.4933 56.3615 90.632C56.2015 90.7707 56.0255 90.8453 55.8335 90.856C55.6522 90.8667 55.4708 90.872 55.2895 90.872L54.3135 90.856C54.3135 91.2933 54.3562 92.1573 54.4415 93.448C54.5375 94.7387 54.6122 95.576 54.6655 95.96C54.7188 96.3333 54.7295 96.5787 54.6975 96.696C54.6655 96.8027 54.6068 96.8773 54.5215 96.92C54.3828 96.984 54.1962 97.016 53.9615 97.016C53.7268 97.016 53.5882 96.888 53.5455 96.632C53.3322 95.2347 53.1882 93.3147 53.1135 90.872C53.0175 90.8827 52.6495 90.888 52.0095 90.888C51.3695 90.888 51.0495 90.7013 51.0495 90.328C51.0495 89.7947 51.3482 89.528 51.9455 89.528ZM61.5095 89.528C61.9788 89.528 62.2135 89.928 62.2135 90.728C62.2135 90.8133 62.2135 90.904 62.2135 91L62.1815 92.12C62.1708 92.472 62.1655 92.8187 62.1655 93.16L62.4055 96.776C62.4055 97.0427 62.1335 97.176 61.5895 97.176C61.5575 97.176 61.4775 97.176 61.3495 97.176C61.2322 97.176 61.1468 97.128 61.0935 97.032C61.0508 96.936 61.0455 96.8187 61.0775 96.68C61.1202 96.5413 61.1095 96.3867 61.0455 96.216C60.5548 96.7387 59.9042 97 59.0935 97C57.5895 97 56.8375 95.8373 56.8375 93.512C56.8375 92.2213 57.0775 91.2453 57.5575 90.584C58.0482 89.9227 58.7468 89.592 59.6535 89.592C60.0802 89.592 60.5068 89.6667 60.9335 89.816C61.0722 89.624 61.2642 89.528 61.5095 89.528ZM59.8455 90.984C59.2375 90.984 58.7842 91.16 58.4855 91.512C58.1868 91.864 58.0375 92.5093 58.0375 93.448C58.0375 95.0267 58.4642 95.816 59.3175 95.816C59.5415 95.816 59.7868 95.7147 60.0535 95.512C60.3308 95.3093 60.5228 95.08 60.6295 94.824C60.8322 94.248 60.9335 93.6187 60.9335 92.936C60.9335 92.2533 60.8482 91.7573 60.6775 91.448C60.5175 91.1387 60.2402 90.984 59.8455 90.984ZM70.8226 89.512L70.8066 86.424C70.8066 85.848 70.988 85.56 71.3506 85.56C71.724 85.56 71.932 85.72 71.9746 86.04C71.996 86.1787 72.0226 87.016 72.0546 88.552C72.0866 90.088 72.1346 91.528 72.1986 92.872C72.2733 94.216 72.3106 95.4693 72.3106 96.632C72.3106 96.952 72.0706 97.112 71.5906 97.112C71.2706 97.112 71.1106 96.888 71.1106 96.44C70.652 96.8027 70.108 96.984 69.4786 96.984C68.6786 96.984 68.028 96.6853 67.5266 96.088C67.036 95.4907 66.7906 94.7547 66.7906 93.88C66.7906 93.0053 66.9666 92.1893 67.3186 91.432C67.6813 90.664 68.2413 90.1147 68.9986 89.784C69.468 89.5813 69.9213 89.48 70.3586 89.48C70.5186 89.48 70.6733 89.4907 70.8226 89.512ZM70.9026 91.704C70.828 91.4693 70.7373 91.2933 70.6306 91.176C70.524 91.048 70.4066 90.9733 70.2786 90.952C70.1613 90.92 70.0173 90.904 69.8466 90.904C69.676 90.904 69.468 90.968 69.2226 91.096C68.9773 91.224 68.7693 91.432 68.5986 91.72C68.2573 92.296 68.0866 92.904 68.0866 93.544C68.0866 94.1733 68.2093 94.6907 68.4546 95.096C68.7106 95.4907 69.068 95.688 69.5266 95.688C69.996 95.688 70.364 95.4587 70.6306 95C70.8973 94.5413 71.0306 93.9547 71.0306 93.24C71.0306 92.44 70.988 91.928 70.9026 91.704ZM75.537 89.592C76.1023 89.592 76.641 89.7573 77.153 90.088C77.665 90.4187 77.921 90.8293 77.921 91.32C77.921 91.8 77.713 92.2693 77.297 92.728C76.881 93.176 76.3263 93.448 75.633 93.544C75.3343 93.5867 74.8863 93.608 74.289 93.608C74.4063 94.5147 74.6357 95.112 74.977 95.4C75.0837 95.5173 75.2277 95.576 75.409 95.576C76.0703 95.576 76.625 95.368 77.073 94.952C77.521 94.5253 77.841 94.312 78.033 94.312C78.1183 94.312 78.2463 94.392 78.417 94.552C78.5877 94.712 78.673 94.8613 78.673 95C78.673 95.2773 78.337 95.6773 77.665 96.2C77.3663 96.4453 77.0037 96.6533 76.577 96.824C76.161 96.984 75.7717 97.064 75.409 97.064C74.481 97.064 73.7983 96.4667 73.361 95.272C73.0837 94.536 72.945 93.7253 72.945 92.84C72.945 91.9547 73.153 91.192 73.569 90.552C73.985 89.912 74.641 89.592 75.537 89.592ZM75.617 90.696C75.2117 90.696 74.865 90.9253 74.577 91.384C74.4703 91.544 74.369 91.9067 74.273 92.472C75.7663 92.472 76.513 92.104 76.513 91.368C76.513 90.92 76.2143 90.696 75.617 90.696ZM88.0635 86.536C88.7782 86.536 89.5675 86.6747 90.4315 86.952C90.6235 87.1013 90.7195 87.2667 90.7195 87.448C90.7195 87.6187 90.6288 87.7733 90.4475 87.912C90.2768 88.04 90.0795 88.104 89.8555 88.104C89.2795 87.9547 88.7408 87.88 88.2395 87.88C87.0875 87.88 86.2128 88.2213 85.6155 88.904C85.0182 89.5867 84.7195 90.6 84.7195 91.944C84.7195 93.288 85.0715 94.3387 85.7755 95.096C86.1382 95.4907 86.5702 95.688 87.0715 95.688C87.5728 95.688 88.3728 95.4213 89.4715 94.888C89.8555 94.7067 90.1115 94.616 90.2395 94.616C90.5168 94.616 90.6555 94.76 90.6555 95.048C90.6555 95.336 90.5222 95.576 90.2555 95.768C89.3382 96.248 88.6235 96.5733 88.1115 96.744C87.5995 96.904 87.1568 96.984 86.7835 96.984C86.0155 96.984 85.3595 96.7013 84.8155 96.136C83.8448 95.0907 83.3595 93.6667 83.3595 91.864C83.3595 90.0507 83.8182 88.712 84.7355 87.848C85.6635 86.9733 86.7728 86.536 88.0635 86.536ZM96.5251 89.528C96.9945 89.528 97.2291 89.928 97.2291 90.728C97.2291 90.8133 97.2291 90.904 97.2291 91L97.1971 92.12C97.1865 92.472 97.1811 92.8187 97.1811 93.16L97.4211 96.776C97.4211 97.0427 97.1491 97.176 96.6051 97.176C96.5731 97.176 96.4931 97.176 96.3651 97.176C96.2478 97.176 96.1625 97.128 96.1091 97.032C96.0665 96.936 96.0611 96.8187 96.0931 96.68C96.1358 96.5413 96.1251 96.3867 96.0611 96.216C95.5705 96.7387 94.9198 97 94.1091 97C92.6051 97 91.8531 95.8373 91.8531 93.512C91.8531 92.2213 92.0931 91.2453 92.5731 90.584C93.0638 89.9227 93.7625 89.592 94.6691 89.592C95.0958 89.592 95.5225 89.6667 95.9491 89.816C96.0878 89.624 96.2798 89.528 96.5251 89.528ZM94.8611 90.984C94.2531 90.984 93.7998 91.16 93.5011 91.512C93.2025 91.864 93.0531 92.5093 93.0531 93.448C93.0531 95.0267 93.4798 95.816 94.3331 95.816C94.5571 95.816 94.8025 95.7147 95.0691 95.512C95.3465 95.3093 95.5385 95.08 95.6451 94.824C95.8478 94.248 95.9491 93.6187 95.9491 92.936C95.9491 92.2533 95.8638 91.7573 95.6931 91.448C95.5331 91.1387 95.2558 90.984 94.8611 90.984ZM99.2388 97.016C98.9614 97.016 98.7961 96.8613 98.7428 96.552C98.7428 94.3973 98.6148 92.4773 98.3588 90.792C98.3588 90.5787 98.4334 90.3867 98.5828 90.216C98.7428 90.0453 98.9188 89.96 99.1108 89.96C99.3134 89.96 99.4628 90.072 99.5588 90.296C99.9534 89.7733 100.481 89.512 101.143 89.512C101.985 89.512 102.636 89.9173 103.095 90.728C103.628 89.96 104.332 89.576 105.207 89.576C106.092 89.576 106.753 89.928 107.191 90.632C107.479 91.0693 107.681 91.6453 107.799 92.36C107.916 93.0747 107.975 94.088 107.975 95.4C107.975 95.912 107.921 96.312 107.815 96.6C107.708 96.8773 107.484 97.016 107.143 97.016C106.865 97.016 106.727 96.84 106.727 96.488L106.775 94.488C106.775 92.088 106.151 90.888 104.903 90.888C104.508 90.888 104.231 91.0267 104.071 91.304C103.889 91.6347 103.783 91.9813 103.751 92.344C103.708 92.984 103.687 93.5653 103.687 94.088V96.408C103.687 96.5787 103.601 96.7227 103.431 96.84C103.26 96.9573 103.084 97.016 102.903 97.016C102.668 97.016 102.519 96.8613 102.455 96.552L102.503 93.24C102.503 92.0667 102.305 91.336 101.911 91.048C101.719 90.9093 101.425 90.84 101.031 90.84C100.647 90.84 100.359 90.984 100.167 91.272C99.9854 91.56 99.8948 92.024 99.8948 92.664L99.9908 95.64C99.9908 96.5573 99.7401 97.016 99.2388 97.016ZM111.73 96.984C111.367 96.984 111.031 96.8613 110.722 96.616C110.722 96.616 110.652 96.5573 110.514 96.44V101.24C110.45 101.453 110.338 101.629 110.178 101.768C110.018 101.917 109.847 101.992 109.666 101.992C109.388 101.992 109.25 101.805 109.25 101.432V90.28C109.314 90.0027 109.388 89.8053 109.474 89.688C109.57 89.5707 109.714 89.512 109.906 89.512C110.108 89.512 110.236 89.56 110.29 89.656C110.354 89.7413 110.428 89.9867 110.514 90.392C110.556 90.1787 110.727 89.9813 111.026 89.8C111.324 89.6187 111.724 89.528 112.226 89.528C113.314 89.528 114.087 89.9227 114.546 90.712C115.004 91.5013 115.234 92.4347 115.234 93.512C115.234 94.5787 114.919 95.4267 114.29 96.056C113.671 96.6747 112.818 96.984 111.73 96.984ZM110.514 92.184V95.16C110.578 95.192 110.652 95.2453 110.738 95.32C111.047 95.5973 111.383 95.736 111.746 95.736C113.218 95.736 113.954 94.9787 113.954 93.464C113.954 92.1733 113.623 91.3573 112.962 91.016C112.684 90.8667 112.343 90.792 111.938 90.792C111.543 90.8453 111.207 91.0213 110.93 91.32C110.652 91.608 110.514 91.896 110.514 92.184ZM118.878 89.544C119.646 89.544 120.275 89.912 120.766 90.648C121.267 91.384 121.518 92.2693 121.518 93.304C121.518 94.328 121.262 95.2027 120.75 95.928C120.248 96.6533 119.576 97.016 118.734 97.016C117.902 97.016 117.23 96.648 116.718 95.912C116.206 95.1653 115.95 94.3387 115.95 93.432C115.95 92.2693 116.184 91.3413 116.654 90.648C117.155 89.912 117.896 89.544 118.878 89.544ZM118.686 90.856C118.238 90.856 117.87 91.0907 117.582 91.56C117.294 92.0293 117.15 92.5253 117.15 93.048C117.15 93.8587 117.31 94.4773 117.63 94.904C117.95 95.3307 118.312 95.544 118.718 95.544C119.443 95.544 119.907 95.2293 120.11 94.6C120.195 94.3013 120.238 93.928 120.238 93.48C120.238 91.7307 119.72 90.856 118.686 90.856ZM126.522 96.488C126.362 96.3707 126.282 96.2427 126.282 96.104C126.282 95.9547 126.341 95.832 126.458 95.736C126.255 94.2107 126.154 92.4613 126.154 90.488C126.154 89.8907 126.181 88.728 126.234 87C126.287 86.84 126.394 86.7013 126.554 86.584C126.725 86.4667 126.885 86.408 127.034 86.408C127.183 86.408 127.274 86.4133 127.306 86.424C128.831 86.8507 130.159 87.6773 131.29 88.904C132.421 90.12 133.013 91.5813 133.066 93.288C133.066 95.1653 132.287 96.344 130.73 96.824C130.282 96.9627 129.807 97.032 129.306 97.032C128.815 97.032 128.383 96.9947 128.01 96.92C128.053 97.0053 128.074 97.1173 128.074 97.256C128.074 97.4053 127.983 97.544 127.802 97.672C127.631 97.8107 127.423 97.88 127.178 97.88C126.943 97.88 126.794 97.736 126.73 97.448L126.522 96.488ZM127.482 90.36C127.482 92.2267 127.589 93.9973 127.802 95.672C128.058 95.7467 128.49 95.784 129.098 95.784C129.706 95.784 130.287 95.6827 130.842 95.48C131.407 95.2773 131.706 94.9787 131.738 94.584C131.77 94.2853 131.786 94.056 131.786 93.896C131.786 92.5093 131.413 91.2827 130.666 90.216C129.93 89.1493 128.895 88.3387 127.562 87.784C127.509 89.0427 127.482 89.9013 127.482 90.36ZM134.836 86.888C135.028 86.888 135.209 86.9787 135.38 87.16C135.551 87.3413 135.636 87.5333 135.636 87.736C135.636 87.928 135.54 88.1253 135.348 88.328C135.167 88.5307 134.975 88.632 134.772 88.632C134.569 88.632 134.383 88.5467 134.212 88.376C134.052 88.2053 133.972 87.9867 133.972 87.72C133.972 87.208 134.249 86.9307 134.804 86.888C134.815 86.888 134.825 86.888 134.836 86.888ZM135.508 95.272L135.524 96.392C135.524 96.5947 135.444 96.7653 135.284 96.904C135.124 97.032 134.953 97.096 134.772 97.096C134.505 97.096 134.367 96.9627 134.356 96.696C134.217 93.2933 134.148 91.4107 134.148 91.048C134.148 90.6853 134.164 90.2427 134.196 89.72C134.217 89.528 134.34 89.432 134.564 89.432C135.129 89.432 135.449 89.6613 135.524 90.12C135.556 90.3547 135.572 90.5413 135.572 90.68L135.508 91.688V95.272ZM141.95 96.344C141.566 96.792 141.081 97.016 140.494 97.016C139.907 97.016 139.401 96.8347 138.974 96.472C138.078 95.7787 137.63 94.7173 137.63 93.288C137.63 92.168 137.939 91.272 138.558 90.6C139.177 89.9173 139.939 89.576 140.846 89.576C141.753 89.576 142.371 89.8853 142.702 90.504C142.99 91.048 143.134 91.8693 143.134 92.968L143.102 94.28C143.102 94.8987 143.129 95.7573 143.182 96.856C143.246 97.944 143.278 98.7653 143.278 99.32C143.278 100.237 143.049 100.909 142.59 101.336C142.142 101.773 141.454 101.992 140.526 101.992C139.971 101.992 139.406 101.875 138.83 101.64C138.254 101.405 137.966 101.133 137.966 100.824C137.966 100.6 138.025 100.429 138.142 100.312C138.27 100.195 138.414 100.136 138.574 100.136C138.734 100.136 139.091 100.253 139.646 100.488C140.211 100.723 140.617 100.84 140.862 100.84C141.63 100.84 142.014 100.211 142.014 98.952C142.014 97.6933 141.993 96.824 141.95 96.344ZM141.934 92.968C141.934 92.1893 141.817 91.6453 141.582 91.336C141.358 91.016 141.001 90.856 140.51 90.856C140.019 90.856 139.625 91.08 139.326 91.528C139.027 91.976 138.878 92.5467 138.878 93.24C138.878 93.9227 139.017 94.4667 139.294 94.872C139.582 95.2773 140.019 95.48 140.606 95.48C141.193 95.48 141.571 95.2293 141.742 94.728C141.87 94.3227 141.934 93.736 141.934 92.968ZM145.539 86.888C145.731 86.888 145.912 86.9787 146.083 87.16C146.254 87.3413 146.339 87.5333 146.339 87.736C146.339 87.928 146.243 88.1253 146.051 88.328C145.87 88.5307 145.678 88.632 145.475 88.632C145.272 88.632 145.086 88.5467 144.915 88.376C144.755 88.2053 144.675 87.9867 144.675 87.72C144.675 87.208 144.952 86.9307 145.507 86.888C145.518 86.888 145.528 86.888 145.539 86.888ZM146.211 95.272L146.227 96.392C146.227 96.5947 146.147 96.7653 145.987 96.904C145.827 97.032 145.656 97.096 145.475 97.096C145.208 97.096 145.07 96.9627 145.059 96.696C144.92 93.2933 144.851 91.4107 144.851 91.048C144.851 90.6853 144.867 90.2427 144.899 89.72C144.92 89.528 145.043 89.432 145.267 89.432C145.832 89.432 146.152 89.6613 146.227 90.12C146.259 90.3547 146.275 90.5413 146.275 90.68L146.211 91.688V95.272ZM148.461 89.528L149.261 89.544C149.442 89.544 149.544 89.5387 149.565 89.528V86.248C149.576 86.0667 149.666 85.912 149.837 85.784C150.008 85.656 150.168 85.592 150.317 85.592C150.466 85.592 150.584 85.64 150.669 85.736C150.765 85.832 150.808 85.9813 150.797 86.184C150.786 86.3867 150.781 87.496 150.781 89.512L152.653 89.448C152.973 89.448 153.133 89.6347 153.133 90.008C153.133 90.2853 153.048 90.4933 152.877 90.632C152.717 90.7707 152.541 90.8453 152.349 90.856C152.168 90.8667 151.986 90.872 151.805 90.872L150.829 90.856C150.829 91.2933 150.872 92.1573 150.957 93.448C151.053 94.7387 151.128 95.576 151.181 95.96C151.234 96.3333 151.245 96.5787 151.213 96.696C151.181 96.8027 151.122 96.8773 151.037 96.92C150.898 96.984 150.712 97.016 150.477 97.016C150.242 97.016 150.104 96.888 150.061 96.632C149.848 95.2347 149.704 93.3147 149.629 90.872C149.533 90.8827 149.165 90.888 148.525 90.888C147.885 90.888 147.565 90.7013 147.565 90.328C147.565 89.7947 147.864 89.528 148.461 89.528ZM158.025 89.528C158.494 89.528 158.729 89.928 158.729 90.728C158.729 90.8133 158.729 90.904 158.729 91L158.697 92.12C158.686 92.472 158.681 92.8187 158.681 93.16L158.921 96.776C158.921 97.0427 158.649 97.176 158.105 97.176C158.073 97.176 157.993 97.176 157.865 97.176C157.748 97.176 157.662 97.128 157.609 97.032C157.566 96.936 157.561 96.8187 157.593 96.68C157.636 96.5413 157.625 96.3867 157.561 96.216C157.07 96.7387 156.42 97 155.609 97C154.105 97 153.353 95.8373 153.353 93.512C153.353 92.2213 153.593 91.2453 154.073 90.584C154.564 89.9227 155.262 89.592 156.169 89.592C156.596 89.592 157.022 89.6667 157.449 89.816C157.588 89.624 157.78 89.528 158.025 89.528ZM156.361 90.984C155.753 90.984 155.3 91.16 155.001 91.512C154.702 91.864 154.553 92.5093 154.553 93.448C154.553 95.0267 154.98 95.816 155.833 95.816C156.057 95.816 156.302 95.7147 156.569 95.512C156.846 95.3093 157.038 95.08 157.145 94.824C157.348 94.248 157.449 93.6187 157.449 92.936C157.449 92.2533 157.364 91.7573 157.193 91.448C157.033 91.1387 156.756 90.984 156.361 90.984ZM159.779 86.648C159.811 86.2427 159.875 85.9813 159.971 85.864C160.077 85.736 160.243 85.672 160.467 85.672C160.925 85.672 161.155 85.8587 161.155 86.232C161.155 86.52 161.128 87.272 161.075 88.488C161.032 89.704 161.011 90.792 161.011 91.752C161.011 92.712 161.048 93.4853 161.123 94.072C161.251 95.096 161.432 95.608 161.667 95.608C161.901 95.608 162.077 95.4427 162.195 95.112C162.248 94.984 162.333 94.872 162.451 94.776C162.568 94.6693 162.717 94.616 162.899 94.616C163.272 94.616 163.459 94.9307 163.459 95.56C163.459 95.9013 163.272 96.2427 162.899 96.584C162.536 96.9147 162.173 97.08 161.811 97.08C161.448 97.08 161.155 97.0213 160.931 96.904C160.717 96.776 160.541 96.5893 160.403 96.344C160.275 96.0987 160.168 95.864 160.083 95.64C160.008 95.4053 159.955 95.1227 159.923 94.792C159.859 94.2587 159.811 93.4053 159.779 92.232C159.757 91.048 159.747 89.9227 159.747 88.856C159.747 87.7787 159.757 87.0427 159.779 86.648Z" fill="#03045E"/>
</svg>
